<svg version="1.1" preserveAspectRatio="none" xmlns="http://www.w3.org/2000/svg" width="500" height="500" viewBox="0 0 500 500"><rect width="100%" height="100%" fill="#F7F7F7" fill-opacity="1"/><svg viewBox="120.9896 365.5272 435.8662 200" width="333" height="152.7991847039298" x="83.5px" y="173.6004px" xmlns="http://www.w3.org/2000/svg" xmlns:xlink="http://www.w3.org/1999/xlink" preserveAspectRatio="none"><defs></defs><style>.companyName {fill:#282727;fill-opacity:1;}.icon3-str {stroke:#E17350;stroke-opacity:1;}.shape {fill:#F3CCD5;fill-opacity:0.95;}.shapeStroke-str {stroke:#282727;stroke-opacity:0.1;}</style><g opacity="1" transform="rotate(0 120.9896 365.5272)">
<svg width="200" height="200" x="120.9896" y="365.5272" version="1.1" preserveAspectRatio="none" viewBox="0 0 200 200">
  <defs><rect x="0" y="0" width="200" height="200" rx="0px" ry="0px" id="id-o0jQam8yd1678449611005"></rect></defs><use class="shape shapeStroke-str" style="stroke-width:0;" xlink:href="#id-o0jQam8yd1678449611005"></use>
</svg>
</g><g opacity="1" transform="rotate(0 160.9896 405.5272)">
<svg width="395.8662" height="120" x="160.9896" y="405.5272" version="1.1" preserveAspectRatio="none" viewBox="1.76 -26.4 113.47999999999999 34.4">
  <g transform="matrix(1 0 0 1 0 0)" class="companyName"><path id="id-D6z1nYkh5" d="M1.76 0L1.76-1.32Q3.24-1.32 3.88-1.50Q4.52-1.68 4.72-2.12Q4.92-2.56 4.92-3.56L4.92-3.56L4.92-22.80Q4.92-23.84 4.72-24.30Q4.52-24.76 3.88-24.92Q3.24-25.08 1.76-25.08L1.76-25.08L1.76-26.40L14.40-26.40Q21.16-26.32 24.52-23.22Q27.88-20.12 27.88-13.56L27.88-13.56Q27.88-6.40 24.18-3.20Q20.48 0 13.08 0L13.08 0L1.76 0ZM13.28-1.56Q18-1.56 20.18-4.44Q22.36-7.32 22.36-13.44L22.36-13.44Q22.36-24.84 13.52-24.84L13.52-24.84Q11.32-24.84 10.56-24.56Q9.80-24.28 9.80-23.40L9.80-23.40L9.80-3.84Q9.80-2.48 10.50-2.02Q11.20-1.56 13.28-1.56L13.28-1.56Z M48.16-9.68L48.16-9.16L36.16-9.16Q36.28-5.72 37.48-3.92Q38.68-2.12 41.52-2.12L41.52-2.12Q43.48-2.12 44.76-3.02Q46.04-3.92 46.80-5.72L46.80-5.72L48.04-5Q47.04-2.56 45.24-1.08Q43.44 0.40 39.84 0.40L39.84 0.40Q31.24 0.40 31.24-9.32L31.24-9.32Q31.24-14.24 33.42-16.72Q35.60-19.20 39.80-19.20L39.80-19.20Q44.20-19.20 46.18-16.64Q48.16-14.08 48.16-9.68L48.16-9.68ZM36.12-10.76L43.28-10.76Q43.28-14.32 42.64-15.96Q42-17.60 39.96-17.60L39.96-17.60Q38-17.60 37.10-15.96Q36.20-14.32 36.12-10.76L36.12-10.76Z M69.24-9.68L69.24-9.16L57.24-9.16Q57.36-5.72 58.56-3.92Q59.76-2.12 62.60-2.12L62.60-2.12Q64.56-2.12 65.84-3.02Q67.12-3.92 67.88-5.72L67.88-5.72L69.12-5Q68.12-2.56 66.32-1.08Q64.52 0.40 60.92 0.40L60.92 0.40Q52.32 0.40 52.32-9.32L52.32-9.32Q52.32-14.24 54.50-16.72Q56.68-19.20 60.88-19.20L60.88-19.20Q65.28-19.20 67.26-16.64Q69.24-14.08 69.24-9.68L69.24-9.68ZM57.20-10.76L64.36-10.76Q64.36-14.32 63.72-15.96Q63.08-17.60 61.04-17.60L61.04-17.60Q59.08-17.60 58.18-15.96Q57.28-14.32 57.20-10.76L57.20-10.76Z M85.96-19.20Q89.40-19.20 91.30-16.86Q93.20-14.52 93.20-10L93.20-10Q93.20-4.88 90.76-2.22Q88.32 0.44 83.76 0.44L83.76 0.44Q82.76 0.44 81.88 0.28Q81.00 0.12 79.88-0.28L79.88-0.28L79.88 4.72Q79.88 5.56 80.10 5.96Q80.32 6.36 80.98 6.52Q81.64 6.68 83.08 6.68L83.08 6.68L83.08 8L72.72 8L72.72 6.68Q73.92 6.68 74.44 6.52Q74.96 6.36 75.12 5.98Q75.28 5.60 75.28 4.72L75.28 4.72L75.28-15.36Q75.28-16.24 74.98-16.50Q74.68-16.76 73.60-16.76L73.60-16.76L72.88-16.76L72.88-18.12L78.64-19L79.76-19L79.76-16.76L79.80-16.76Q80.72-17.88 82.42-18.54Q84.12-19.20 85.96-19.20L85.96-19.20ZM83.24-1.16Q85.72-1.16 87.00-3.18Q88.28-5.20 88.28-8.96L88.28-8.96Q88.28-12.68 87.06-14.64Q85.84-16.60 83.56-16.60L83.56-16.60Q82.40-16.60 81.54-16.18Q80.68-15.76 79.88-15.16L79.88-15.16L79.88-2.44Q81.28-1.16 83.24-1.16L83.24-1.16Z M114.84-1.92L115.24-0.84Q114.36-0.32 113.34 0.04Q112.32 0.40 110.80 0.40L110.80 0.40Q109.16 0.40 108.46-0.12Q107.76-0.64 107.76-2.28L107.76-2.28Q106.40-1.08 104.96-0.34Q103.52 0.40 101.76 0.40L101.76 0.40Q99.60 0.40 98.20-0.64Q96.80-1.68 96.80-3.60L96.80-3.60Q96.80-6.32 99.70-8.38Q102.60-10.44 107.76-11.36L107.76-11.36L107.76-13.80Q107.72-15.48 106.90-16.32Q106.08-17.16 104.04-17.16L104.04-17.16Q102.92-17.16 102.10-16.82Q101.28-16.48 101.28-16.12L101.28-16.12Q101.28-15.76 101.76-15.28L101.76-15.28Q102.08-14.92 102.24-14.64Q102.40-14.36 102.40-13.88L102.40-13.88Q102.40-12.88 101.80-12.30Q101.20-11.72 100.20-11.72L100.20-11.72Q99.16-11.72 98.52-12.36Q97.88-13 97.88-14.04L97.88-14.04Q97.88-15.36 98.86-16.52Q99.84-17.68 101.70-18.38Q103.56-19.08 106.08-19.08L106.08-19.08Q109.28-19.08 110.78-17.76Q112.28-16.44 112.28-13.20L112.28-13.20L112.28-4.32Q112.28-2.76 112.62-2.18Q112.96-1.60 113.72-1.60L113.72-1.60Q114.12-1.60 114.44-1.74Q114.76-1.88 114.84-1.92L114.84-1.92ZM101.32-5Q101.32-2.48 104.28-2.48L104.28-2.48Q105.92-2.48 107.76-3.96L107.76-3.96L107.76-9.80Q104.44-9.08 102.88-7.94Q101.32-6.80 101.32-5L101.32-5Z"/></g>
</svg>
</g></svg></svg>